<mxfile host="app.diagrams.net" agent="Mozilla/5.0 (Windows NT 10.0; Win64; x64) AppleWebKit/537.36 (KHTML, like Gecko) Chrome/131.0.0.0 Safari/537.36" version="26.2.14">
  <diagram name="PÃ¡gina-1" id="t_X0RVxn_bkm-zGQMpVW">
    <mxGraphModel dx="1148" dy="536" grid="1" gridSize="10" guides="1" tooltips="1" connect="1" arrows="1" fold="1" page="1" pageScale="1" pageWidth="827" pageHeight="1169" math="0" shadow="0">
      <root>
        <mxCell id="0" />
        <mxCell id="1" parent="0" />
        <mxCell id="dQCR1QXbyp14cFQZJCBx-1" value="modelo conceitual 2.0" style="rounded=1;whiteSpace=wrap;html=1;fillColor=#d5e8d4;strokeColor=#82b366;gradientColor=#97d077;" vertex="1" parent="1">
          <mxGeometry x="240" y="20" width="230" height="30" as="geometry" />
        </mxCell>
        <mxCell id="dQCR1QXbyp14cFQZJCBx-25" value="escola" style="swimlane;childLayout=stackLayout;horizontal=1;startSize=50;horizontalStack=0;rounded=1;fontSize=14;fontStyle=0;strokeWidth=2;resizeParent=0;resizeLast=1;shadow=0;dashed=0;align=center;arcSize=4;whiteSpace=wrap;html=1;" vertex="1" parent="1">
          <mxGeometry x="40" y="120" width="160" height="160" as="geometry" />
        </mxCell>
        <mxCell id="dQCR1QXbyp14cFQZJCBx-26" value="cnpj PK&lt;div&gt;nome&lt;/div&gt;&lt;div&gt;endereco&lt;/div&gt;&lt;div&gt;bairro&lt;/div&gt;&lt;div&gt;cidade&lt;/div&gt;&lt;div&gt;estado&lt;/div&gt;" style="align=left;strokeColor=none;fillColor=none;spacingLeft=4;spacingRight=4;fontSize=12;verticalAlign=top;resizable=0;rotatable=0;part=1;html=1;whiteSpace=wrap;" vertex="1" parent="dQCR1QXbyp14cFQZJCBx-25">
          <mxGeometry y="50" width="160" height="110" as="geometry" />
        </mxCell>
        <mxCell id="dQCR1QXbyp14cFQZJCBx-32" value="turmas" style="swimlane;childLayout=stackLayout;horizontal=1;startSize=50;horizontalStack=0;rounded=1;fontSize=14;fontStyle=0;strokeWidth=2;resizeParent=0;resizeLast=1;shadow=0;dashed=0;align=center;arcSize=4;whiteSpace=wrap;html=1;" vertex="1" parent="1">
          <mxGeometry x="300" y="115" width="160" height="165" as="geometry" />
        </mxCell>
        <mxCell id="dQCR1QXbyp14cFQZJCBx-33" value="codigo PK&lt;div&gt;nsala&lt;/div&gt;&lt;div&gt;nalunos&lt;/div&gt;&lt;div&gt;periodo&lt;/div&gt;" style="align=left;strokeColor=none;fillColor=none;spacingLeft=4;spacingRight=4;fontSize=12;verticalAlign=top;resizable=0;rotatable=0;part=1;html=1;whiteSpace=wrap;" vertex="1" parent="dQCR1QXbyp14cFQZJCBx-32">
          <mxGeometry y="50" width="160" height="115" as="geometry" />
        </mxCell>
        <mxCell id="dQCR1QXbyp14cFQZJCBx-38" value="professores" style="swimlane;childLayout=stackLayout;horizontal=1;startSize=50;horizontalStack=0;rounded=1;fontSize=14;fontStyle=0;strokeWidth=2;resizeParent=0;resizeLast=1;shadow=0;dashed=0;align=center;arcSize=4;whiteSpace=wrap;html=1;" vertex="1" parent="1">
          <mxGeometry x="560" y="110" width="160" height="170" as="geometry" />
        </mxCell>
        <mxCell id="dQCR1QXbyp14cFQZJCBx-39" value="codigo PK&lt;div&gt;disciplina&lt;/div&gt;&lt;div&gt;telefone&lt;/div&gt;&lt;div&gt;nome&lt;/div&gt;" style="align=left;strokeColor=none;fillColor=none;spacingLeft=4;spacingRight=4;fontSize=12;verticalAlign=top;resizable=0;rotatable=0;part=1;html=1;whiteSpace=wrap;" vertex="1" parent="dQCR1QXbyp14cFQZJCBx-38">
          <mxGeometry y="50" width="160" height="120" as="geometry" />
        </mxCell>
        <mxCell id="dQCR1QXbyp14cFQZJCBx-41" value="" style="edgeStyle=entityRelationEdgeStyle;fontSize=12;html=1;endArrow=ERmany;rounded=0;" edge="1" parent="1">
          <mxGeometry width="100" height="100" relative="1" as="geometry">
            <mxPoint x="200" y="250" as="sourcePoint" />
            <mxPoint x="300" y="150" as="targetPoint" />
          </mxGeometry>
        </mxCell>
        <mxCell id="dQCR1QXbyp14cFQZJCBx-42" value="" style="edgeStyle=entityRelationEdgeStyle;fontSize=12;html=1;endArrow=ERmany;rounded=0;" edge="1" parent="1">
          <mxGeometry width="100" height="100" relative="1" as="geometry">
            <mxPoint x="490" y="720" as="sourcePoint" />
            <mxPoint x="590" y="620" as="targetPoint" />
          </mxGeometry>
        </mxCell>
        <mxCell id="dQCR1QXbyp14cFQZJCBx-43" value="atleta" style="swimlane;childLayout=stackLayout;horizontal=1;startSize=50;horizontalStack=0;rounded=1;fontSize=14;fontStyle=0;strokeWidth=2;resizeParent=0;resizeLast=1;shadow=0;dashed=0;align=center;arcSize=4;whiteSpace=wrap;html=1;" vertex="1" parent="1">
          <mxGeometry x="50" y="370" width="160" height="160" as="geometry" />
        </mxCell>
        <mxCell id="dQCR1QXbyp14cFQZJCBx-44" value="cpf PK&lt;div&gt;nome&lt;/div&gt;&lt;div&gt;endereco&lt;/div&gt;&lt;div&gt;peso&lt;/div&gt;&lt;div&gt;altura&lt;/div&gt;&lt;div&gt;modalidade&lt;/div&gt;&lt;div&gt;telefone&lt;/div&gt;" style="align=left;strokeColor=none;fillColor=none;spacingLeft=4;spacingRight=4;fontSize=12;verticalAlign=top;resizable=0;rotatable=0;part=1;html=1;whiteSpace=wrap;" vertex="1" parent="dQCR1QXbyp14cFQZJCBx-43">
          <mxGeometry y="50" width="160" height="110" as="geometry" />
        </mxCell>
        <mxCell id="dQCR1QXbyp14cFQZJCBx-45" value="modalidades" style="swimlane;childLayout=stackLayout;horizontal=1;startSize=50;horizontalStack=0;rounded=1;fontSize=14;fontStyle=0;strokeWidth=2;resizeParent=0;resizeLast=1;shadow=0;dashed=0;align=center;arcSize=4;whiteSpace=wrap;html=1;" vertex="1" parent="1">
          <mxGeometry x="310" y="367.5" width="160" height="165" as="geometry" />
        </mxCell>
        <mxCell id="dQCR1QXbyp14cFQZJCBx-46" value="codigo PK&lt;div&gt;caracteristica&lt;/div&gt;&lt;div&gt;&lt;span style=&quot;background-color: transparent; color: light-dark(rgb(0, 0, 0), rgb(255, 255, 255));&quot;&gt;nome&lt;/span&gt;&lt;/div&gt;&lt;div&gt;periodo&lt;/div&gt;&lt;div&gt;esporte&lt;/div&gt;" style="align=left;strokeColor=none;fillColor=none;spacingLeft=4;spacingRight=4;fontSize=12;verticalAlign=top;resizable=0;rotatable=0;part=1;html=1;whiteSpace=wrap;" vertex="1" parent="dQCR1QXbyp14cFQZJCBx-45">
          <mxGeometry y="50" width="160" height="115" as="geometry" />
        </mxCell>
        <mxCell id="dQCR1QXbyp14cFQZJCBx-47" value="campeonatos" style="swimlane;childLayout=stackLayout;horizontal=1;startSize=50;horizontalStack=0;rounded=1;fontSize=14;fontStyle=0;strokeWidth=2;resizeParent=0;resizeLast=1;shadow=0;dashed=0;align=center;arcSize=4;whiteSpace=wrap;html=1;" vertex="1" parent="1">
          <mxGeometry x="570" y="360" width="160" height="170" as="geometry" />
        </mxCell>
        <mxCell id="dQCR1QXbyp14cFQZJCBx-48" value="codigo PK&lt;div&gt;dia&lt;/div&gt;&lt;div&gt;hora&lt;/div&gt;&lt;div&gt;nome&lt;/div&gt;&lt;div&gt;estado&lt;/div&gt;&lt;div&gt;lugar&lt;/div&gt;&lt;div&gt;&lt;br&gt;&lt;/div&gt;" style="align=left;strokeColor=none;fillColor=none;spacingLeft=4;spacingRight=4;fontSize=12;verticalAlign=top;resizable=0;rotatable=0;part=1;html=1;whiteSpace=wrap;" vertex="1" parent="dQCR1QXbyp14cFQZJCBx-47">
          <mxGeometry y="50" width="160" height="120" as="geometry" />
        </mxCell>
        <mxCell id="dQCR1QXbyp14cFQZJCBx-52" value="" style="edgeStyle=entityRelationEdgeStyle;fontSize=12;html=1;endArrow=ERmany;startArrow=ERmany;rounded=0;" edge="1" parent="1">
          <mxGeometry width="100" height="100" relative="1" as="geometry">
            <mxPoint x="470" y="490" as="sourcePoint" />
            <mxPoint x="570" y="390" as="targetPoint" />
          </mxGeometry>
        </mxCell>
        <mxCell id="dQCR1QXbyp14cFQZJCBx-53" value="" style="edgeStyle=entityRelationEdgeStyle;fontSize=12;html=1;endArrow=ERmany;rounded=0;" edge="1" parent="1">
          <mxGeometry width="100" height="100" relative="1" as="geometry">
            <mxPoint x="210" y="495" as="sourcePoint" />
            <mxPoint x="310" y="395" as="targetPoint" />
          </mxGeometry>
        </mxCell>
        <mxCell id="dQCR1QXbyp14cFQZJCBx-54" value="cliente" style="swimlane;childLayout=stackLayout;horizontal=1;startSize=50;horizontalStack=0;rounded=1;fontSize=14;fontStyle=0;strokeWidth=2;resizeParent=0;resizeLast=1;shadow=0;dashed=0;align=center;arcSize=4;whiteSpace=wrap;html=1;" vertex="1" parent="1">
          <mxGeometry x="70" y="595" width="160" height="160" as="geometry" />
        </mxCell>
        <mxCell id="dQCR1QXbyp14cFQZJCBx-55" value="cpf PK&lt;div&gt;nome&lt;/div&gt;&lt;div&gt;endereco&lt;/div&gt;&lt;div&gt;telefone&lt;/div&gt;&lt;div&gt;&lt;br&gt;&lt;/div&gt;" style="align=left;strokeColor=none;fillColor=none;spacingLeft=4;spacingRight=4;fontSize=12;verticalAlign=top;resizable=0;rotatable=0;part=1;html=1;whiteSpace=wrap;" vertex="1" parent="dQCR1QXbyp14cFQZJCBx-54">
          <mxGeometry y="50" width="160" height="110" as="geometry" />
        </mxCell>
        <mxCell id="dQCR1QXbyp14cFQZJCBx-56" value="produto" style="swimlane;childLayout=stackLayout;horizontal=1;startSize=50;horizontalStack=0;rounded=1;fontSize=14;fontStyle=0;strokeWidth=2;resizeParent=0;resizeLast=1;shadow=0;dashed=0;align=center;arcSize=4;whiteSpace=wrap;html=1;" vertex="1" parent="1">
          <mxGeometry x="330" y="592.5" width="160" height="165" as="geometry" />
        </mxCell>
        <mxCell id="dQCR1QXbyp14cFQZJCBx-57" value="codigo de rastreio PK&lt;div&gt;caracteristica&lt;/div&gt;&lt;div&gt;&lt;span style=&quot;background-color: transparent; color: light-dark(rgb(0, 0, 0), rgb(255, 255, 255));&quot;&gt;nome&lt;/span&gt;&lt;/div&gt;&lt;div&gt;preco&lt;/div&gt;&lt;div&gt;entrega&lt;/div&gt;&lt;div&gt;&lt;br&gt;&lt;/div&gt;" style="align=left;strokeColor=none;fillColor=none;spacingLeft=4;spacingRight=4;fontSize=12;verticalAlign=top;resizable=0;rotatable=0;part=1;html=1;whiteSpace=wrap;" vertex="1" parent="dQCR1QXbyp14cFQZJCBx-56">
          <mxGeometry y="50" width="160" height="115" as="geometry" />
        </mxCell>
        <mxCell id="dQCR1QXbyp14cFQZJCBx-58" value="fabricante" style="swimlane;childLayout=stackLayout;horizontal=1;startSize=50;horizontalStack=0;rounded=1;fontSize=14;fontStyle=0;strokeWidth=2;resizeParent=0;resizeLast=1;shadow=0;dashed=0;align=center;arcSize=4;whiteSpace=wrap;html=1;" vertex="1" parent="1">
          <mxGeometry x="590" y="585" width="160" height="170" as="geometry" />
        </mxCell>
        <mxCell id="dQCR1QXbyp14cFQZJCBx-59" value="cnpj PK&lt;div&gt;estado&lt;/div&gt;&lt;div&gt;telefone&lt;/div&gt;&lt;div&gt;nome&lt;/div&gt;&lt;div&gt;endereco&lt;/div&gt;&lt;div&gt;filial&lt;/div&gt;" style="align=left;strokeColor=none;fillColor=none;spacingLeft=4;spacingRight=4;fontSize=12;verticalAlign=top;resizable=0;rotatable=0;part=1;html=1;whiteSpace=wrap;" vertex="1" parent="dQCR1QXbyp14cFQZJCBx-58">
          <mxGeometry y="50" width="160" height="120" as="geometry" />
        </mxCell>
        <mxCell id="dQCR1QXbyp14cFQZJCBx-61" value="" style="edgeStyle=entityRelationEdgeStyle;fontSize=12;html=1;endArrow=ERmany;rounded=0;" edge="1" parent="1">
          <mxGeometry width="100" height="100" relative="1" as="geometry">
            <mxPoint x="230" y="720" as="sourcePoint" />
            <mxPoint x="330" y="620" as="targetPoint" />
          </mxGeometry>
        </mxCell>
        <mxCell id="dQCR1QXbyp14cFQZJCBx-71" value="autor" style="swimlane;childLayout=stackLayout;horizontal=1;startSize=50;horizontalStack=0;rounded=1;fontSize=14;fontStyle=0;strokeWidth=2;resizeParent=0;resizeLast=1;shadow=0;dashed=0;align=center;arcSize=4;whiteSpace=wrap;html=1;" vertex="1" parent="1">
          <mxGeometry x="60" y="852.5" width="160" height="160" as="geometry" />
        </mxCell>
        <mxCell id="dQCR1QXbyp14cFQZJCBx-72" value="cpf PK&lt;div&gt;nome&lt;/div&gt;&lt;div&gt;endereco&lt;/div&gt;&lt;div&gt;telefone&lt;/div&gt;&lt;div&gt;&lt;br&gt;&lt;/div&gt;" style="align=left;strokeColor=none;fillColor=none;spacingLeft=4;spacingRight=4;fontSize=12;verticalAlign=top;resizable=0;rotatable=0;part=1;html=1;whiteSpace=wrap;" vertex="1" parent="dQCR1QXbyp14cFQZJCBx-71">
          <mxGeometry y="50" width="160" height="110" as="geometry" />
        </mxCell>
        <mxCell id="dQCR1QXbyp14cFQZJCBx-73" value="livro" style="swimlane;childLayout=stackLayout;horizontal=1;startSize=50;horizontalStack=0;rounded=1;fontSize=14;fontStyle=0;strokeWidth=2;resizeParent=0;resizeLast=1;shadow=0;dashed=0;align=center;arcSize=4;whiteSpace=wrap;html=1;" vertex="1" parent="1">
          <mxGeometry x="320" y="850" width="160" height="165" as="geometry" />
        </mxCell>
        <mxCell id="dQCR1QXbyp14cFQZJCBx-74" value="codigo de rastreio PK&lt;div&gt;caracteristica&lt;/div&gt;&lt;div&gt;&lt;span style=&quot;background-color: transparent; color: light-dark(rgb(0, 0, 0), rgb(255, 255, 255));&quot;&gt;nome&lt;/span&gt;&lt;/div&gt;&lt;div&gt;preco&lt;/div&gt;&lt;div&gt;entrega&lt;/div&gt;&lt;div&gt;&lt;br&gt;&lt;/div&gt;" style="align=left;strokeColor=none;fillColor=none;spacingLeft=4;spacingRight=4;fontSize=12;verticalAlign=top;resizable=0;rotatable=0;part=1;html=1;whiteSpace=wrap;" vertex="1" parent="dQCR1QXbyp14cFQZJCBx-73">
          <mxGeometry y="50" width="160" height="115" as="geometry" />
        </mxCell>
        <mxCell id="dQCR1QXbyp14cFQZJCBx-75" value="editora" style="swimlane;childLayout=stackLayout;horizontal=1;startSize=50;horizontalStack=0;rounded=1;fontSize=14;fontStyle=0;strokeWidth=2;resizeParent=0;resizeLast=1;shadow=0;dashed=0;align=center;arcSize=4;whiteSpace=wrap;html=1;" vertex="1" parent="1">
          <mxGeometry x="580" y="850" width="160" height="170" as="geometry" />
        </mxCell>
        <mxCell id="dQCR1QXbyp14cFQZJCBx-76" value="cnpj PK&lt;div&gt;estado&lt;/div&gt;&lt;div&gt;telefone&lt;/div&gt;&lt;div&gt;nome&lt;/div&gt;&lt;div&gt;endereco&lt;/div&gt;&lt;div&gt;filial&lt;/div&gt;" style="align=left;strokeColor=none;fillColor=none;spacingLeft=4;spacingRight=4;fontSize=12;verticalAlign=top;resizable=0;rotatable=0;part=1;html=1;whiteSpace=wrap;" vertex="1" parent="dQCR1QXbyp14cFQZJCBx-75">
          <mxGeometry y="50" width="160" height="120" as="geometry" />
        </mxCell>
        <mxCell id="dQCR1QXbyp14cFQZJCBx-77" value="" style="edgeStyle=entityRelationEdgeStyle;fontSize=12;html=1;endArrow=ERmany;rounded=0;" edge="1" parent="1">
          <mxGeometry width="100" height="100" relative="1" as="geometry">
            <mxPoint x="220" y="977.5" as="sourcePoint" />
            <mxPoint x="320" y="877.5" as="targetPoint" />
          </mxGeometry>
        </mxCell>
        <mxCell id="dQCR1QXbyp14cFQZJCBx-78" value="categoria" style="swimlane;childLayout=stackLayout;horizontal=1;startSize=50;horizontalStack=0;rounded=1;fontSize=14;fontStyle=0;strokeWidth=2;resizeParent=0;resizeLast=1;shadow=0;dashed=0;align=center;arcSize=4;whiteSpace=wrap;html=1;" vertex="1" parent="1">
          <mxGeometry x="570" y="1062.5" width="160" height="170" as="geometry" />
        </mxCell>
        <mxCell id="dQCR1QXbyp14cFQZJCBx-79" value="suspense&lt;div&gt;fantasia&lt;/div&gt;&lt;div&gt;romance&lt;/div&gt;&lt;div&gt;misterio&lt;/div&gt;&lt;div&gt;autoajuda&lt;/div&gt;&lt;div&gt;filosofia&lt;/div&gt;&lt;div&gt;caracteristica&lt;/div&gt;&lt;div&gt;&lt;br&gt;&lt;/div&gt;" style="align=left;strokeColor=none;fillColor=none;spacingLeft=4;spacingRight=4;fontSize=12;verticalAlign=top;resizable=0;rotatable=0;part=1;html=1;whiteSpace=wrap;" vertex="1" parent="dQCR1QXbyp14cFQZJCBx-78">
          <mxGeometry y="50" width="160" height="120" as="geometry" />
        </mxCell>
        <mxCell id="dQCR1QXbyp14cFQZJCBx-82" value="" style="edgeStyle=entityRelationEdgeStyle;fontSize=12;html=1;endArrow=ERmany;rounded=0;" edge="1" parent="1">
          <mxGeometry width="100" height="100" relative="1" as="geometry">
            <mxPoint x="460" y="245" as="sourcePoint" />
            <mxPoint x="560" y="145" as="targetPoint" />
          </mxGeometry>
        </mxCell>
        <mxCell id="dQCR1QXbyp14cFQZJCBx-84" value="" style="edgeStyle=entityRelationEdgeStyle;fontSize=12;html=1;endArrow=ERmany;startArrow=ERmany;rounded=0;" edge="1" parent="1">
          <mxGeometry width="100" height="100" relative="1" as="geometry">
            <mxPoint x="480" y="972.5" as="sourcePoint" />
            <mxPoint x="580" y="872.5" as="targetPoint" />
          </mxGeometry>
        </mxCell>
        <mxCell id="dQCR1QXbyp14cFQZJCBx-87" value="" style="edgeStyle=entityRelationEdgeStyle;fontSize=12;html=1;endArrow=ERmany;rounded=0;entryX=1.008;entryY=0.83;entryDx=0;entryDy=0;entryPerimeter=0;exitX=-0.003;exitY=0.157;exitDx=0;exitDy=0;exitPerimeter=0;" edge="1" parent="1" source="dQCR1QXbyp14cFQZJCBx-79" target="dQCR1QXbyp14cFQZJCBx-74">
          <mxGeometry width="100" height="100" relative="1" as="geometry">
            <mxPoint x="510" y="1165.41" as="sourcePoint" />
            <mxPoint x="460" y="1052.5" as="targetPoint" />
            <Array as="points">
              <mxPoint x="490" y="1105.41" />
            </Array>
          </mxGeometry>
        </mxCell>
        <mxCell id="dQCR1QXbyp14cFQZJCBx-88" value="coordenador" style="swimlane;childLayout=stackLayout;horizontal=1;startSize=50;horizontalStack=0;rounded=1;fontSize=14;fontStyle=0;strokeWidth=2;resizeParent=0;resizeLast=1;shadow=0;dashed=0;align=center;arcSize=4;whiteSpace=wrap;html=1;" vertex="1" parent="1">
          <mxGeometry x="50" y="1322.5" width="160" height="160" as="geometry" />
        </mxCell>
        <mxCell id="dQCR1QXbyp14cFQZJCBx-89" value="cpf PK&lt;div&gt;nome&lt;/div&gt;&lt;div&gt;endereco&lt;/div&gt;&lt;div&gt;telefone&lt;/div&gt;&lt;div&gt;&lt;br&gt;&lt;/div&gt;" style="align=left;strokeColor=none;fillColor=none;spacingLeft=4;spacingRight=4;fontSize=12;verticalAlign=top;resizable=0;rotatable=0;part=1;html=1;whiteSpace=wrap;" vertex="1" parent="dQCR1QXbyp14cFQZJCBx-88">
          <mxGeometry y="50" width="160" height="110" as="geometry" />
        </mxCell>
        <mxCell id="dQCR1QXbyp14cFQZJCBx-90" value="departamento" style="swimlane;childLayout=stackLayout;horizontal=1;startSize=50;horizontalStack=0;rounded=1;fontSize=14;fontStyle=0;strokeWidth=2;resizeParent=0;resizeLast=1;shadow=0;dashed=0;align=center;arcSize=4;whiteSpace=wrap;html=1;" vertex="1" parent="1">
          <mxGeometry x="310" y="1320" width="160" height="165" as="geometry" />
        </mxCell>
        <mxCell id="dQCR1QXbyp14cFQZJCBx-91" value="&lt;div&gt;codigo PK&lt;/div&gt;&lt;div&gt;caracteristica&lt;/div&gt;&lt;div&gt;&lt;span style=&quot;background-color: transparent; color: light-dark(rgb(0, 0, 0), rgb(255, 255, 255));&quot;&gt;nome&lt;/span&gt;&lt;/div&gt;&lt;div&gt;setor&lt;/div&gt;&lt;div&gt;equipes&lt;/div&gt;&lt;div&gt;&lt;br&gt;&lt;/div&gt;" style="align=left;strokeColor=none;fillColor=none;spacingLeft=4;spacingRight=4;fontSize=12;verticalAlign=top;resizable=0;rotatable=0;part=1;html=1;whiteSpace=wrap;" vertex="1" parent="dQCR1QXbyp14cFQZJCBx-90">
          <mxGeometry y="50" width="160" height="115" as="geometry" />
        </mxCell>
        <mxCell id="dQCR1QXbyp14cFQZJCBx-92" value="cargos" style="swimlane;childLayout=stackLayout;horizontal=1;startSize=50;horizontalStack=0;rounded=1;fontSize=14;fontStyle=0;strokeWidth=2;resizeParent=0;resizeLast=1;shadow=0;dashed=0;align=center;arcSize=4;whiteSpace=wrap;html=1;" vertex="1" parent="1">
          <mxGeometry x="570" y="1320" width="160" height="170" as="geometry" />
        </mxCell>
        <mxCell id="dQCR1QXbyp14cFQZJCBx-93" value="codigoPK&lt;div&gt;salario&lt;/div&gt;&lt;div&gt;telefone&lt;/div&gt;&lt;div&gt;nome&lt;/div&gt;&lt;div&gt;filial&lt;/div&gt;" style="align=left;strokeColor=none;fillColor=none;spacingLeft=4;spacingRight=4;fontSize=12;verticalAlign=top;resizable=0;rotatable=0;part=1;html=1;whiteSpace=wrap;" vertex="1" parent="dQCR1QXbyp14cFQZJCBx-92">
          <mxGeometry y="50" width="160" height="120" as="geometry" />
        </mxCell>
        <mxCell id="dQCR1QXbyp14cFQZJCBx-94" value="" style="edgeStyle=entityRelationEdgeStyle;fontSize=12;html=1;endArrow=ERmany;rounded=0;" edge="1" parent="1">
          <mxGeometry width="100" height="100" relative="1" as="geometry">
            <mxPoint x="210" y="1447.5" as="sourcePoint" />
            <mxPoint x="310" y="1347.5" as="targetPoint" />
          </mxGeometry>
        </mxCell>
        <mxCell id="dQCR1QXbyp14cFQZJCBx-95" value="funcionario" style="swimlane;childLayout=stackLayout;horizontal=1;startSize=50;horizontalStack=0;rounded=1;fontSize=14;fontStyle=0;strokeWidth=2;resizeParent=0;resizeLast=1;shadow=0;dashed=0;align=center;arcSize=4;whiteSpace=wrap;html=1;" vertex="1" parent="1">
          <mxGeometry x="560" y="1530" width="160" height="170" as="geometry" />
        </mxCell>
        <mxCell id="dQCR1QXbyp14cFQZJCBx-96" value="&lt;div&gt;nome&lt;/div&gt;&lt;div&gt;cpf PK&amp;nbsp;&lt;/div&gt;&lt;div&gt;telefone&lt;/div&gt;&lt;div&gt;formacao&lt;/div&gt;&lt;div&gt;&lt;br&gt;&lt;/div&gt;&lt;div&gt;&lt;br&gt;&lt;/div&gt;" style="align=left;strokeColor=none;fillColor=none;spacingLeft=4;spacingRight=4;fontSize=12;verticalAlign=top;resizable=0;rotatable=0;part=1;html=1;whiteSpace=wrap;" vertex="1" parent="dQCR1QXbyp14cFQZJCBx-95">
          <mxGeometry y="50" width="160" height="120" as="geometry" />
        </mxCell>
        <mxCell id="dQCR1QXbyp14cFQZJCBx-97" value="" style="edgeStyle=entityRelationEdgeStyle;fontSize=12;html=1;endArrow=ERmany;startArrow=ERmany;rounded=0;" edge="1" parent="1">
          <mxGeometry width="100" height="100" relative="1" as="geometry">
            <mxPoint x="470" y="1442.5" as="sourcePoint" />
            <mxPoint x="570" y="1342.5" as="targetPoint" />
          </mxGeometry>
        </mxCell>
        <mxCell id="dQCR1QXbyp14cFQZJCBx-98" value="" style="edgeStyle=entityRelationEdgeStyle;fontSize=12;html=1;endArrow=ERmany;rounded=0;entryX=1.017;entryY=0.058;entryDx=0;entryDy=0;entryPerimeter=0;" edge="1" source="dQCR1QXbyp14cFQZJCBx-93" target="dQCR1QXbyp14cFQZJCBx-95" parent="1">
          <mxGeometry width="100" height="100" relative="1" as="geometry">
            <mxPoint x="740" y="1420" as="sourcePoint" />
            <mxPoint x="768.5600000000002" y="1621.1399999999999" as="targetPoint" />
            <Array as="points">
              <mxPoint x="843.9200000000001" y="1619.96" />
              <mxPoint x="835.2" y="1470" />
            </Array>
          </mxGeometry>
        </mxCell>
      </root>
    </mxGraphModel>
  </diagram>
</mxfile>
